<?xml version="1.0" standalone="no"?>
<!DOCTYPE svg PUBLIC "-//W3C//DTD SVG 20010904//EN"
 "http://www.w3.org/TR/2001/REC-SVG-20010904/DTD/svg10.dtd">
<svg version="1.0" xmlns="http://www.w3.org/2000/svg"
 width="1024.000000pt" height="1024.000000pt" viewBox="0 0 1024.000000 1024.000000"
 preserveAspectRatio="xMidYMid meet">
<metadata>
Created by potrace 1.11, written by Peter Selinger 2001-2013
</metadata>
<g transform="translate(0.000000,1024.000000) scale(0.100000,-0.100000)"
fill="#000000" stroke="none">
<path d="M4912 9679 c-980 -40 -1946 -414 -2707 -1049 -470 -391 -845 -855
-1129 -1393 -498 -944 -646 -2090 -406 -3138 248 -1079 896 -2050 1800 -2696
718 -513 1584 -808 2465 -841 939 -35 1813 196 2600 686 910 567 1603 1455
1929 2471 163 507 234 1035 215 1591 -32 905 -351 1802 -903 2540 -634 848
-1544 1452 -2560 1699 -296 73 -598 117 -866 126 -80 3 -170 7 -200 9 -30 1
-137 -1 -238 -5z m144 -213 c3 -8 -48 -94 -116 -196 -67 -100 -123 -187 -126
-195 -3 -8 66 -100 168 -222 232 -278 221 -264 206 -280 -8 -8 -52 -15 -113
-19 l-100 -6 -130 170 c-71 94 -135 173 -142 176 -6 3 -24 -15 -40 -39 l-29
-45 14 -141 c8 -82 10 -145 5 -150 -13 -13 -179 -24 -186 -12 -3 5 -25 208
-49 451 -30 310 -39 445 -32 452 6 6 49 13 96 17 78 5 86 4 91 -13 5 -17 24
-209 30 -306 2 -36 7 -29 127 158 82 129 131 196 145 199 27 6 81 11 133 13
29 1 44 -3 48 -12z m-1152 -218 c24 -8 61 -32 91 -61 l50 -49 -60 -54 c-33
-29 -65 -54 -72 -54 -7 0 -29 12 -50 26 -43 29 -66 27 -162 -8 -67 -25 -101
-57 -101 -95 0 -46 140 -421 168 -448 31 -31 63 -32 147 -1 82 30 112 56 120
107 l7 39 90 0 90 0 -4 -70 c-4 -83 -36 -137 -110 -186 -52 -35 -196 -90 -273
-105 -65 -12 -142 4 -188 39 -51 38 -77 92 -169 344 -70 191 -82 232 -82 288
-2 134 77 206 304 281 65 21 146 24 204 7z m1957 -78 c29 -6 56 -15 60 -21 3
-6 1 -40 -6 -75 -7 -36 -9 -66 -6 -68 3 -2 37 -9 75 -16 l69 -13 -6 -57 c-10
-87 -13 -93 -58 -86 -22 3 -56 9 -77 12 l-38 6 -13 -70 c-7 -39 -18 -75 -24
-80 -17 -14 -127 6 -134 24 -3 8 0 44 7 80 13 78 12 80 -66 90 -74 9 -77 12
-69 77 11 86 16 90 102 74 l72 -14 11 56 c21 104 13 97 101 81z m1000 -52 l79
-43 0 -50 c0 -57 -27 -418 -36 -483 l-5 -43 213 174 c117 95 219 176 225 181
19 11 173 -75 173 -97 0 -30 -410 -797 -426 -797 -30 0 -154 70 -154 87 0 27
134 272 245 448 12 20 -2 11 -46 -31 -58 -55 -257 -220 -286 -237 -12 -7 -126
44 -137 61 -6 11 20 282 38 387 8 44 13 81 12 82 -1 2 -17 -34 -35 -80 -37
-91 -196 -403 -211 -412 -11 -7 -141 57 -159 79 -10 12 22 80 199 415 117 221
217 401 222 401 6 0 46 -19 89 -42z m-3713 -638 c199 -162 361 -300 362 -306
0 -6 -36 -35 -79 -63 -87 -57 -93 -57 -141 -6 -49 53 -50 53 -180 -36 -66 -45
-120 -87 -120 -94 0 -6 9 -38 20 -70 11 -31 17 -61 14 -66 -12 -21 -157 -110
-164 -102 -10 9 -290 878 -290 898 0 16 190 147 206 143 6 -2 174 -136 372
-298z m2437 -169 c446 -69 877 -227 1235 -451 811 -509 1345 -1324 1490 -2275
31 -201 39 -585 16 -796 -79 -728 -387 -1387 -888 -1904 -303 -313 -648 -554
-1021 -715 l-112 -49 -3 -413 -2 -413 -107 -107 -108 -108 -275 0 -275 0 -82
82 -83 83 -83 -83 -82 -82 -280 0 -280 0 -107 107 -108 108 0 337 0 338 -27 6
c-920 204 -1736 842 -2162 1692 -185 369 -293 748 -332 1165 -15 160 -6 571
15 720 65 451 225 898 455 1266 494 789 1308 1334 2211 1481 214 34 286 39
575 35 225 -2 308 -7 420 -24z m2558 -69 l87 -87 -222 -423 c-121 -232 -225
-422 -229 -422 -16 0 -139 122 -139 138 0 8 14 39 30 69 17 29 30 56 30 61 0
4 -49 53 -109 109 l-108 102 -57 -35 c-31 -19 -63 -34 -69 -34 -7 0 -43 31
-81 69 l-69 69 59 34 c573 325 771 436 779 437 6 1 50 -38 98 -87z m-5730
-325 c186 -159 337 -293 335 -298 -7 -18 -113 -139 -122 -139 -6 0 -71 52
-145 115 -74 63 -137 115 -140 115 -11 0 -26 -15 -91 -90 -105 -120 -112 -131
-98 -148 7 -8 68 -62 135 -119 68 -58 123 -112 123 -121 0 -15 -106 -142 -119
-142 -13 0 -686 582 -689 597 -4 14 104 143 119 143 4 0 61 -45 126 -101 65
-55 126 -105 135 -110 14 -7 34 11 112 101 52 61 93 116 90 123 -3 6 -58 57
-124 112 -65 55 -121 106 -124 114 -10 23 107 157 127 145 6 -4 164 -138 350
-297z m6296 -338 c34 -55 42 -75 34 -88 -10 -16 -154 -108 -248 -158 l-50 -27
220 -27 c121 -16 225 -28 232 -28 13 -1 103 -145 103 -166 0 -7 -4 -16 -9 -20
-6 -3 -112 9 -236 26 -124 17 -227 30 -229 28 -1 -2 -58 -128 -127 -279 -80
-177 -131 -276 -141 -278 -11 -2 -32 24 -67 81 -28 47 -51 90 -51 96 0 6 44
98 97 205 54 107 94 198 90 202 -3 4 -29 9 -57 12 -48 4 -55 1 -169 -67 -66
-39 -124 -71 -130 -71 -6 0 -31 35 -56 77 -43 74 -44 78 -27 94 28 28 745 459
762 459 8 0 35 -32 59 -71z m468 -921 c18 -24 174 -551 166 -559 -16 -16 -153
-53 -162 -43 -5 5 -32 86 -61 179 -28 94 -57 176 -64 182 -9 10 -26 8 -84 -11
-40 -13 -75 -26 -79 -29 -3 -4 16 -76 42 -162 27 -85 45 -158 42 -161 -3 -4
-39 -17 -79 -30 -58 -19 -75 -21 -84 -11 -7 6 -28 66 -49 132 -55 181 -52 177
-88 169 -80 -17 -132 -41 -135 -62 -2 -11 20 -95 49 -186 28 -91 49 -171 46
-178 -2 -7 -37 -24 -77 -37 -60 -19 -74 -21 -85 -9 -16 17 -180 556 -172 564
8 9 827 262 848 263 9 1 21 -5 26 -11z m-7645 -125 l39 -90 84 -18 c130 -27
130 -29 41 -109 l-76 -68 6 -104 c4 -60 3 -104 -2 -104 -5 0 -46 23 -92 50
-46 28 -86 50 -88 50 -3 0 -42 -16 -85 -35 -122 -54 -121 -54 -88 82 20 84 20
86 1 107 -120 137 -115 129 -96 143 10 7 41 13 68 13 112 0 123 5 168 84 50
87 58 98 71 93 6 -2 28 -44 49 -94z m7756 -840 c56 -27 118 -96 143 -161 17
-43 22 -80 23 -147 1 -78 -3 -97 -26 -145 -30 -62 -49 -86 -93 -116 -62 -44
-69 -42 -104 36 -17 39 -31 75 -31 80 0 6 16 26 35 45 76 76 46 215 -46 215
-42 0 -73 -47 -113 -170 -57 -179 -122 -257 -235 -281 -98 -21 -207 20 -265
100 -44 59 -61 126 -61 236 0 139 32 214 118 276 63 46 77 41 115 -44 38 -85
39 -93 11 -107 -53 -29 -78 -144 -44 -209 16 -33 33 -41 80 -41 47 0 67 30
110 163 20 62 47 131 60 153 28 48 85 101 129 120 45 19 150 18 194 -3z
m-7606 -483 c4 -156 11 -138 -67 -182 -38 -22 -110 -62 -160 -89 -87 -47 -89
-49 -52 -49 62 0 289 -94 300 -124 12 -30 10 -200 -2 -204 -6 -2 -115 46 -241
108 -130 63 -236 108 -243 104 -6 -4 -100 -63 -208 -131 -108 -67 -201 -123
-206 -123 -14 0 -23 58 -23 147 l0 72 98 54 c53 30 124 68 157 85 l60 30 -39
7 c-40 8 -142 46 -237 88 l-56 25 -6 78 c-9 106 -9 144 3 144 5 0 103 -45 217
-101 114 -56 222 -107 238 -114 30 -13 34 -11 230 115 110 70 208 129 218 129
14 1 17 -9 19 -69z m7332 -435 c259 -41 412 -69 417 -77 5 -7 6 -22 4 -33 -3
-11 -16 -92 -30 -180 -31 -197 -37 -221 -78 -282 -45 -67 -117 -103 -207 -103
-166 0 -283 84 -311 221 -9 44 -8 77 4 160 14 88 14 106 2 115 -7 5 -78 20
-156 32 -136 22 -164 32 -155 58 2 6 7 37 11 70 10 83 19 96 58 89 18 -3 216
-35 441 -70z m-7233 -484 c16 -46 26 -87 24 -92 -3 -4 -75 -31 -161 -59 -95
-32 -158 -58 -161 -68 -4 -8 13 -73 36 -144 37 -113 45 -128 65 -128 12 0 82
20 156 45 74 25 144 44 155 43 15 -2 26 -21 46 -83 17 -52 23 -84 17 -92 -12
-15 -834 -285 -856 -281 -19 4 -68 147 -59 171 4 10 64 35 167 67 97 31 164
58 167 67 7 18 -64 252 -82 272 -11 11 -40 4 -181 -43 -126 -42 -171 -53 -181
-45 -14 12 -53 129 -53 160 0 15 70 41 423 158 232 77 428 140 436 138 8 -1
26 -38 42 -86z m7067 -436 c177 -142 322 -266 322 -275 0 -24 -82 -219 -94
-223 -6 -2 -211 18 -456 44 -245 26 -455 48 -467 48 -31 1 -29 14 13 115 32
75 39 85 57 81 12 -3 46 -6 76 -7 l54 -3 53 129 c30 71 54 134 54 141 0 7 -18
24 -39 39 -76 53 -76 53 -40 142 46 112 44 110 98 66 26 -20 192 -154 369
-297z m-6591 -620 c34 -50 62 -98 63 -107 0 -17 -591 -729 -611 -736 -10 -4
-109 144 -109 163 0 7 20 35 45 63 l45 50 -76 119 c-42 65 -80 122 -84 126 -4
5 -40 -1 -79 -14 -39 -13 -72 -21 -74 -18 -28 33 -107 162 -102 167 10 11 888
281 905 279 8 -1 43 -43 77 -92z m5904 10 c53 -18 405 -275 471 -343 73 -77
87 -176 36 -276 -50 -100 -160 -226 -229 -261 -66 -35 -219 -27 -219 11 0 9 9
47 21 85 l21 69 51 0 c48 0 53 3 98 49 80 83 101 149 63 192 -32 37 -347 269
-372 276 -41 10 -84 -20 -136 -95 -50 -74 -52 -81 -31 -163 6 -23 0 -30 -59
-68 -39 -25 -72 -41 -81 -37 -9 3 -27 29 -40 58 -45 97 -28 191 58 310 74 104
124 155 179 182 59 30 105 33 169 11z m-5391 -640 c0 -13 -109 -129 -319 -339
l-319 -319 -67 63 c-36 35 -64 69 -63 76 2 6 145 157 320 334 l316 323 66 -59
c38 -35 65 -67 66 -79z m5030 -287 c154 -188 280 -347 280 -355 0 -11 -132
-125 -367 -316 -46 -36 -89 -64 -95 -61 -19 8 -98 111 -98 126 0 8 65 67 145
133 80 65 145 124 145 131 0 19 -90 124 -106 124 -9 0 -68 -43 -132 -95 -64
-52 -122 -95 -129 -95 -18 0 -113 118 -107 133 3 6 39 39 81 72 105 83 163
135 163 145 0 16 -100 130 -114 130 -7 0 -74 -50 -147 -111 -74 -61 -142 -115
-151 -120 -14 -7 -27 2 -68 52 -28 34 -50 68 -48 75 4 18 437 374 454 374 7 0
139 -154 294 -342z m-4718 31 l68 -41 0 -72 c0 -100 -19 -534 -25 -576 -4 -25
9 -6 47 70 59 118 227 390 244 397 12 4 147 -77 158 -95 9 -16 -469 -767 -490
-770 -11 -1 -48 16 -83 39 l-63 41 6 302 c4 165 10 310 13 321 9 33 -3 15 -49
-76 -65 -126 -221 -369 -237 -369 -8 0 -45 19 -83 43 -54 33 -68 46 -65 62 3
20 435 713 465 748 8 9 18 17 20 17 3 0 36 -19 74 -41z"/>
<path d="M2805 8511 c-5 -10 101 -321 115 -335 8 -8 144 76 157 98 4 5 -7 20
-23 34 -16 13 -77 67 -136 118 -59 51 -110 90 -113 85z"/>
<path d="M5071 7633 c-15 -3 -78 -57 -150 -129 -73 -73 -110 -114 -87 -100 56
37 132 36 177 -1 83 -70 75 -188 -17 -240 -43 -25 -39 -32 4 -9 15 8 63 51
107 95 l80 81 575 1 c316 1 557 5 535 8 -86 15 -135 67 -135 143 0 86 48 139
134 146 61 5 111 -23 138 -78 10 -19 18 -27 18 -18 0 9 -12 30 -26 48 -53 63
-23 60 -706 59 -343 -1 -634 -4 -647 -6z"/>
<path d="M6452 7490 c0 -14 2 -19 5 -12 2 6 2 18 0 25 -3 6 -5 1 -5 -13z"/>
<path d="M6437 7431 c-4 -17 -3 -21 5 -13 5 5 8 16 6 23 -3 8 -7 3 -11 -10z"/>
<path d="M3520 7418 c53 -37 74 -72 74 -125 -1 -59 -25 -108 -67 -133 l-32
-20 490 0 c449 1 488 2 465 16 -43 27 -64 64 -68 124 -3 45 0 61 20 90 13 19
39 43 58 52 34 17 17 18 -469 18 l-504 0 33 -22z"/>
<path d="M6404 7378 l-19 -23 23 19 c21 18 27 26 19 26 -2 0 -12 -10 -23 -22z"/>
<path d="M4785 7359 c-4 -6 -5 -12 -2 -15 2 -3 7 2 10 11 7 17 1 20 -8 4z"/>
<path d="M6355 7350 c-16 -7 -17 -9 -3 -9 9 -1 20 4 23 9 7 11 7 11 -20 0z"/>
<path d="M4773 7290 c0 -25 2 -35 4 -22 2 12 2 32 0 45 -2 12 -4 2 -4 -23z"/>
<path d="M5724 7239 c21 -5 51 -17 67 -26 31 -19 69 -85 69 -121 0 -57 -51
-125 -106 -142 -17 -5 237 -9 614 -9 l643 -1 55 -51 54 -52 0 -136 0 -137 -53
-52 -53 -52 -564 -1 c-311 -1 -548 -5 -527 -9 75 -14 130 -75 130 -142 0 -76
-42 -131 -116 -148 -17 -5 239 -8 571 -9 517 -1 608 1 639 14 45 19 226 195
261 255 26 44 27 50 30 242 3 127 0 217 -8 254 -12 55 -18 64 -123 171 -61 63
-127 124 -147 136 l-35 22 -720 2 c-457 1 -706 -2 -681 -8z"/>
<path d="M4780 7233 c0 -7 12 -25 28 -41 15 -15 20 -19 11 -7 -9 11 -21 29
-27 40 -6 11 -12 14 -12 8z"/>
<path d="M5245 7229 c-11 -6 -146 -137 -300 -290 l-280 -279 -680 -2 -680 -3
-35 -22 c-19 -12 -59 -47 -89 -77 l-54 -55 49 25 c55 28 106 28 150 -1 85 -55
85 -194 1 -245 -18 -11 -26 -20 -19 -20 7 0 32 18 55 40 l44 39 679 3 c615 3
682 5 709 20 17 9 170 157 340 329 171 172 297 302 281 291 -82 -62 -185 -40
-232 50 -34 66 -4 149 66 186 24 12 38 22 30 22 -8 0 -24 -5 -35 -11z"/>
<path d="M5612 7214 c-62 -49 -80 -126 -43 -194 21 -40 74 -80 105 -79 16 1
14 3 -8 9 -42 13 -85 58 -97 102 -19 71 22 149 91 177 21 8 22 10 5 10 -11 1
-35 -11 -53 -25z"/>
<path d="M5421 7195 c9 -11 21 -29 27 -40 6 -11 12 -14 12 -8 0 7 -12 25 -27
41 -16 15 -21 19 -12 7z"/>
<path d="M4858 7148 c5 -5 16 -8 23 -6 8 3 3 7 -10 11 -17 4 -21 3 -13 -5z"/>
<path d="M4918 7133 c6 -2 18 -2 25 0 6 3 1 5 -13 5 -14 0 -19 -2 -12 -5z"/>
<path d="M5463 7090 c0 -25 2 -35 4 -22 2 12 2 32 0 45 -2 12 -4 2 -4 -23z"/>
<path d="M3105 7043 c-24 -4 -99 -73 -357 -331 -274 -275 -328 -333 -337 -367
-7 -27 -11 -238 -10 -640 1 -382 4 -586 10 -561 13 56 44 92 94 111 81 32 160
-6 190 -90 12 -35 14 24 15 515 l0 555 253 253 252 252 675 1 c371 1 654 5
628 8 -57 8 -97 35 -120 82 -33 63 -14 140 45 183 15 11 49 23 75 27 26 3
-275 6 -668 6 -393 0 -728 -2 -745 -4z"/>
<path d="M5446 7023 c-6 -14 -5 -15 5 -6 7 7 10 15 7 18 -3 3 -9 -2 -12 -12z"/>
<path d="M4607 7019 c7 -7 15 -10 18 -7 3 3 -2 9 -12 12 -14 6 -15 5 -6 -5z"/>
<path d="M4651 6973 c7 -12 15 -20 18 -17 3 2 -3 12 -13 22 -17 16 -18 16 -5
-5z"/>
<path d="M4667 6851 c-4 -17 -3 -21 5 -13 5 5 8 16 6 23 -3 8 -7 3 -11 -10z"/>
<path d="M5445 6830 c-22 -11 -87 -68 -145 -126 -58 -59 -91 -98 -74 -86 64
44 132 40 189 -9 64 -57 67 -147 8 -213 -15 -17 13 8 62 57 l90 87 670 1 c390
1 652 5 628 10 -154 30 -174 232 -28 284 35 12 -44 14 -660 15 -678 0 -701 -1
-740 -20z"/>
<path d="M6918 6843 c7 -3 16 -2 19 1 4 3 -2 6 -13 5 -11 0 -14 -3 -6 -6z"/>
<path d="M4590 6760 c-9 -6 -10 -10 -3 -10 6 0 15 5 18 10 8 12 4 12 -15 0z"/>
<path d="M7041 6704 c0 -11 3 -14 6 -6 3 7 2 16 -1 19 -3 4 -6 -2 -5 -13z"/>
<path d="M3110 6469 c-7 -11 -10 -23 -7 -25 2 -2 9 7 15 21 14 30 7 33 -8 4z"/>
<path d="M3092 6400 c0 -14 2 -19 5 -12 2 6 2 18 0 25 -3 6 -5 1 -5 -13z"/>
<path d="M3101 6361 c-1 -19 40 -79 59 -86 8 -4 3 6 -12 22 -15 15 -31 39 -37
53 -5 14 -10 19 -10 11z"/>
<path d="M5003 6353 c9 -2 25 -2 35 0 9 3 1 5 -18 5 -19 0 -27 -2 -17 -5z"/>
<path d="M5110 6326 c0 -2 8 -10 18 -17 15 -13 16 -12 3 4 -13 16 -21 21 -21
13z"/>
<path d="M4900 6300 c-6 -11 -8 -20 -6 -20 3 0 10 9 16 20 6 11 8 20 6 20 -3
0 -10 -9 -16 -20z"/>
<path d="M3189 6257 c5 -5 19 -7 32 -5 20 3 19 5 -9 9 -20 3 -29 2 -23 -4z"/>
<path d="M4874 6255 c-3 -8 -4 -20 -2 -27 3 -7 7 -1 10 15 6 29 1 36 -8 12z"/>
<path d="M2933 6253 c9 -2 23 -2 30 0 6 3 -1 5 -18 5 -16 0 -22 -2 -12 -5z"/>
<path d="M3268 6253 c7 -3 16 -2 19 1 4 3 -2 6 -13 5 -11 0 -14 -3 -6 -6z"/>
<path d="M3590 6253 c-34 -7 -354 -325 -380 -378 -19 -39 -20 -62 -20 -402 0
-198 3 -376 7 -394 5 -26 36 -65 126 -156 65 -67 134 -129 152 -137 29 -14 98
-16 507 -16 l473 0 158 -158 157 -157 1 -280 c1 -154 5 -257 8 -229 12 95 64
140 158 132 79 -7 120 -51 136 -148 2 -14 5 117 6 290 0 200 -3 330 -10 355
-9 33 -50 79 -232 262 -183 182 -229 223 -262 232 -26 7 -202 11 -505 11
l-466 0 -52 53 -52 53 0 279 0 280 103 103 102 102 333 0 332 0 1 -327 c0
-285 2 -322 13 -280 21 77 71 117 146 117 70 0 112 -30 136 -97 12 -36 13 -32
14 75 l0 112 90 0 90 0 0 -266 c0 -174 3 -263 10 -259 6 3 10 17 10 30 0 49
82 115 142 115 36 0 102 -38 121 -69 9 -16 21 -46 26 -67 6 -25 9 186 9 576 1
517 -1 607 -12 567 -21 -78 -71 -117 -148 -117 -52 0 -110 35 -126 77 -5 15
-14 37 -19 48 -5 12 -9 -45 -11 -147 l-2 -168 -90 0 -90 0 -1 118 c-1 71 -4
105 -8 87 -17 -69 -73 -115 -140 -115 -147 0 -203 186 -81 268 29 20 44 23 88
20 30 -3 47 -1 40 3 -13 9 -943 10 -988 2z"/>
<path d="M7468 6253 c12 -2 30 -2 40 0 9 3 -1 5 -23 4 -22 0 -30 -2 -17 -4z"/>
<path d="M7393 6228 c-65 -47 -63 -19 -63 -761 l0 -673 -53 -52 -53 -52 -67 0
c-43 0 -66 -4 -62 -10 3 -5 17 -10 30 -10 49 0 115 -82 115 -142 0 -36 -38
-102 -69 -121 -16 -9 -46 -21 -67 -27 -30 -7 -7 -9 96 -7 119 2 140 5 170 24
54 33 238 225 255 266 13 31 15 134 14 759 -1 398 -5 702 -8 677 -4 -25 -15
-58 -24 -73 -59 -89 -191 -86 -247 6 -40 66 -16 156 52 198 18 11 28 20 23 20
-6 0 -25 -10 -42 -22z"/>
<path d="M7558 6230 c18 -11 41 -34 52 -52 11 -18 20 -29 20 -25 0 19 -34 65
-60 81 -16 9 -32 16 -37 16 -4 0 7 -9 25 -20z"/>
<path d="M4628 6211 c17 -18 32 -37 32 -43 0 -6 3 -9 6 -6 8 9 -26 57 -50 70
-13 7 -9 0 12 -21z"/>
<path d="M5770 6234 c0 -6 15 -23 33 -40 l32 -29 -30 35 c-16 19 -31 37 -32
39 -2 2 -3 0 -3 -5z"/>
<path d="M3040 6226 c0 -2 8 -10 18 -17 15 -13 16 -12 3 4 -13 16 -21 21 -21
13z"/>
<path d="M5850 6160 c8 -5 24 -10 34 -10 26 0 18 6 -19 14 -22 5 -26 4 -15 -4z"/>
<path d="M5545 6144 c-46 -23 -243 -224 -265 -270 -19 -39 -20 -62 -19 -710 1
-368 5 -648 9 -623 10 58 26 85 69 111 100 63 228 -13 219 -131 -1 -27 0 -47
5 -44 4 2 7 289 7 637 0 620 0 633 20 651 19 17 21 17 40 0 19 -17 20 -31 21
-239 1 -203 2 -217 15 -177 23 75 71 111 146 111 72 0 116 -37 145 -120 9 -29
11 15 10 235 l-2 270 -27 45 c-35 60 -216 236 -261 255 -46 19 -94 19 -132 -1z"/>
<path d="M4671 6134 c0 -11 3 -14 6 -6 3 7 2 16 -1 19 -3 4 -6 -2 -5 -13z"/>
<path d="M3097 6079 c-15 -73 -73 -119 -149 -119 -58 0 -104 30 -128 83 -20
42 -20 42 -20 -555 0 -398 4 -606 11 -625 12 -33 407 -434 459 -466 35 -22 38
-22 555 -24 286 -1 506 2 489 6 -73 18 -134 86 -134 149 0 53 42 114 95 138
26 11 -36 13 -415 14 l-445 0 -153 153 -152 152 -2 565 c-2 311 -6 549 -11
529z"/>
<path d="M6168 6053 c6 -2 18 -2 25 0 6 3 1 5 -13 5 -14 0 -19 -2 -12 -5z"/>
<path d="M6210 6056 c0 -2 13 -6 29 -8 17 -2 28 -1 25 4 -5 8 -54 12 -54 4z"/>
<path d="M6520 6039 c-20 -11 -44 -35 -55 -52 -19 -30 -20 -53 -22 -362 -2
-287 -1 -324 11 -282 21 77 71 117 146 117 70 0 112 -30 136 -97 12 -34 13
-16 14 175 l0 212 95 0 95 0 1 -407 c0 -246 4 -397 9 -379 17 57 83 106 140
106 42 0 98 -27 117 -56 8 -13 21 -43 29 -66 11 -37 13 28 11 483 l-2 526 -28
36 c-50 66 -54 67 -374 67 -272 0 -290 -2 -323 -21z"/>
<path d="M6125 6040 c-3 -6 1 -7 9 -4 18 7 21 14 7 14 -6 0 -13 -4 -16 -10z"/>
<path d="M6291 6027 c9 -7 26 -28 38 -47 11 -19 21 -31 21 -26 0 17 -41 74
-58 80 -15 6 -16 5 -1 -7z"/>
<path d="M6093 6018 c-15 -20 -25 -38 -20 -38 3 0 12 11 21 25 17 26 16 35 -1
13z"/>
<path d="M6053 5615 c0 -187 3 -317 7 -290 14 97 65 140 156 133 86 -7 141
-72 131 -156 -3 -28 -1 -39 4 -31 5 8 8 160 8 339 -1 217 -4 310 -10 280 -11
-55 -34 -87 -79 -111 -43 -24 -85 -24 -129 -1 -48 24 -74 64 -82 125 -3 29 -6
-101 -6 -288z"/>
<path d="M3728 5863 c7 -3 16 -2 19 1 4 3 -2 6 -13 5 -11 0 -14 -3 -6 -6z"/>
<path d="M4095 5860 c-25 -11 1 -11 35 0 20 6 21 8 5 8 -11 0 -29 -3 -40 -8z"/>
<path d="M3653 5838 c-37 -26 -68 -78 -60 -99 3 -9 6 -6 6 8 1 29 47 82 86 99
16 7 23 13 15 14 -8 0 -30 -10 -47 -22z"/>
<path d="M3795 5846 c146 -65 104 -276 -55 -276 -50 0 -91 20 -119 57 -11 15
-21 23 -21 16 0 -6 25 -39 56 -72 l56 -61 -61 -65 c-44 -48 -61 -73 -61 -93 1
-24 2 -24 14 11 25 68 66 97 138 97 82 0 141 -62 141 -146 0 -54 -29 -100 -78
-124 -52 -25 -78 -25 -130 0 -40 19 -52 35 -84 110 -10 24 -10 24 -4 -5 14
-72 83 -134 151 -135 41 0 96 30 147 81 l51 49 29 -31 c41 -43 105 -89 124
-89 9 0 0 8 -19 18 -19 9 -45 33 -58 52 -20 29 -23 44 -20 88 4 45 10 59 41
89 30 31 44 37 89 40 62 5 106 -17 138 -69 11 -18 20 -29 20 -25 0 19 -32 65
-74 106 l-45 44 59 64 c33 35 60 71 60 80 0 10 -9 3 -22 -17 -36 -52 -69 -72
-121 -72 -111 0 -176 103 -133 207 8 18 26 41 40 51 15 9 24 19 21 22 -3 3
-32 -21 -65 -53 l-60 -59 -47 45 c-57 55 -92 79 -113 79 -8 -1 -1 -7 15 -14z"/>
<path d="M4200 5838 c27 -14 50 -36 62 -58 10 -19 18 -29 18 -21 0 35 -73 101
-112 101 -7 0 8 -10 32 -22z"/>
<path d="M4282 5710 c0 -19 2 -27 5 -17 2 9 2 25 0 35 -3 9 -5 1 -5 -18z"/>
<path d="M3581 5703 c0 -4 4 -17 9 -28 8 -19 9 -19 9 2 1 12 -3 25 -9 28 -5 3
-10 3 -9 -2z"/>
<path d="M4281 5323 c0 -17 -5 -43 -11 -58 -6 -16 -6 -24 0 -20 12 7 23 67 17
92 -3 10 -5 5 -6 -14z"/>
<path d="M4672 5290 c0 -14 2 -19 5 -12 2 6 2 18 0 25 -3 6 -5 1 -5 -13z"/>
<path d="M6742 5290 c0 -14 2 -19 5 -12 2 6 2 18 0 25 -3 6 -5 1 -5 -13z"/>
<path d="M5661 5281 c-1 -14 37 -81 46 -81 2 0 -4 15 -15 33 -11 17 -22 39
-25 47 -4 11 -6 12 -6 1z"/>
<path d="M5947 5271 c-4 -17 -3 -21 5 -13 5 5 8 16 6 23 -3 8 -7 3 -11 -10z"/>
<path d="M6060 5263 c0 -7 12 -25 28 -41 15 -15 20 -19 11 -7 -9 11 -21 29
-27 40 -6 11 -12 14 -12 8z"/>
<path d="M4639 5223 c-8 -9 -27 -24 -44 -35 -16 -10 -26 -18 -21 -18 15 0 75
43 81 58 6 17 0 15 -16 -5z"/>
<path d="M5925 5229 c-4 -6 -5 -12 -2 -15 2 -3 7 2 10 11 7 17 1 20 -8 4z"/>
<path d="M6709 5223 c-8 -9 -27 -24 -44 -35 -16 -10 -26 -18 -21 -18 15 0 75
43 81 58 6 17 0 15 -16 -5z"/>
<path d="M4234 5208 l-19 -23 23 19 c21 18 27 26 19 26 -2 0 -12 -10 -23 -22z"/>
<path d="M6304 5208 l-19 -23 23 19 c21 18 27 26 19 26 -2 0 -12 -10 -23 -22z"/>
<path d="M4414 5211 c7 -11 46 -35 46 -28 0 3 -12 12 -26 22 -15 9 -23 12 -20
6z"/>
<path d="M6484 5211 c7 -11 46 -35 46 -28 0 3 -12 12 -26 22 -15 9 -23 12 -20
6z"/>
<path d="M5870 5185 c-14 -8 -20 -14 -14 -15 5 0 19 7 30 15 24 18 16 19 -16
0z"/>
<path d="M4185 5180 c-16 -7 -17 -9 -3 -9 9 -1 20 4 23 9 7 11 7 11 -20 0z"/>
<path d="M6138 5178 c5 -5 16 -8 23 -6 8 3 3 7 -10 11 -17 4 -21 3 -13 -5z"/>
<path d="M6255 5180 c-16 -7 -17 -9 -3 -9 9 -1 20 4 23 9 7 11 7 11 -20 0z"/>
<path d="M4123 5163 c9 -2 23 -2 30 0 6 3 -1 5 -18 5 -16 0 -22 -2 -12 -5z"/>
<path d="M4518 5163 c6 -2 18 -2 25 0 6 3 1 5 -13 5 -14 0 -19 -2 -12 -5z"/>
<path d="M5798 5163 c6 -2 18 -2 25 0 6 3 1 5 -13 5 -14 0 -19 -2 -12 -5z"/>
<path d="M6198 5163 c6 -2 18 -2 25 0 6 3 1 5 -13 5 -14 0 -19 -2 -12 -5z"/>
<path d="M6588 5163 c6 -2 18 -2 25 0 6 3 1 5 -13 5 -14 0 -19 -2 -12 -5z"/>
<path d="M2698 5087 c-3 -19 -2 -25 4 -19 6 6 8 18 6 28 -3 14 -5 12 -10 -9z"/>
<path d="M5768 5073 c-38 -6 -95 -66 -108 -115 -8 -26 -10 -119 -8 -257 4
-251 2 -246 113 -350 61 -56 107 -82 122 -67 4 3 -3 6 -15 6 -30 0 -89 55
-102 96 -33 100 61 207 164 187 123 -24 159 -183 59 -263 -24 -19 -25 -20 -3
-8 14 8 36 30 48 49 20 28 23 44 20 91 -4 50 -10 64 -46 107 l-42 50 0 85 0
86 186 0 c171 0 189 2 224 21 36 21 70 64 70 91 0 7 -8 -3 -18 -22 -68 -136
-272 -90 -272 61 0 88 72 154 159 146 27 -3 38 -2 30 4 -14 8 -527 10 -581 2z"/>
<path d="M6683 5073 c9 -2 23 -2 30 0 6 3 -1 5 -18 5 -16 0 -22 -2 -12 -5z"/>
<path d="M6607 5049 c-15 -12 -32 -31 -38 -42 -8 -17 -5 -15 13 5 12 15 37 34
53 43 17 8 23 15 15 15 -8 -1 -27 -10 -43 -21z"/>
<path d="M6760 5052 c135 -68 89 -272 -62 -272 -87 0 -153 73 -145 159 3 27 2
38 -4 30 -5 -8 -9 -50 -9 -94 l0 -80 -166 -165 c-91 -91 -179 -185 -195 -209
-29 -45 -29 -46 -28 -190 1 -114 3 -133 9 -88 14 109 106 164 204 123 65 -27
99 -104 78 -174 -9 -27 -8 -32 1 -23 7 7 13 50 15 104 l4 92 178 180 c98 99
185 194 194 212 12 25 16 63 16 169 0 120 -3 141 -21 174 -21 36 -64 70 -91
70 -7 0 3 -8 22 -18z"/>
<path d="M6385 5046 c11 -9 28 -27 39 -39 l18 -22 -14 24 c-8 14 -25 31 -39
39 -23 14 -23 13 -4 -2z"/>
<path d="M2659 5013 c-13 -16 -12 -17 4 -4 9 7 17 15 17 17 0 8 -8 3 -21 -13z"/>
<path d="M4870 4995 c0 -30 36 -83 72 -105 18 -11 42 -20 53 -20 12 1 3 7 -19
15 -22 7 -48 22 -58 33 -11 10 -26 36 -33 58 -8 22 -14 31 -15 19z"/>
<path d="M2498 4978 c5 -5 16 -8 23 -6 8 3 3 7 -10 11 -17 4 -21 3 -13 -5z"/>
<path d="M6452 4925 c0 -16 2 -22 5 -12 2 9 2 23 0 30 -3 6 -5 -1 -5 -18z"/>
<path d="M5112 4910 c-18 -17 -29 -30 -24 -30 5 0 21 14 37 30 37 38 30 38
-13 0z"/>
<path d="M6941 4894 c-1 -11 6 -29 15 -40 8 -10 12 -13 9 -6 -4 8 -11 26 -15
40 -7 22 -8 23 -9 6z"/>
<path d="M5038 4873 c6 -2 18 -2 25 0 6 3 1 5 -13 5 -14 0 -19 -2 -12 -5z"/>
<path d="M7204 4829 c-3 -6 -20 -19 -38 -30 -17 -10 -25 -19 -19 -19 13 0 83
59 71 60 -4 0 -10 -5 -14 -11z"/>
<path d="M6970 4826 c0 -2 8 -10 18 -17 15 -13 16 -12 3 4 -13 16 -21 21 -21
13z"/>
<path d="M7024 4786 c13 -10 37 -15 65 -15 l46 2 -50 6 c-27 4 -57 10 -65 14
-8 5 -6 1 4 -7z"/>
<path d="M7012 4660 c-36 -22 -72 -75 -72 -105 1 -12 7 -3 15 19 17 50 41 74
91 91 22 8 31 14 19 15 -11 0 -35 -9 -53 -20z"/>
<path d="M6942 4500 c0 -14 2 -19 5 -12 2 6 2 18 0 25 -3 6 -5 1 -5 -13z"/>
<path d="M5270 4476 c0 -8 4 -17 9 -20 5 -4 7 3 4 14 -6 23 -13 26 -13 6z"/>
<path d="M6950 4464 c0 -6 15 -23 33 -40 l32 -29 -30 35 c-16 19 -31 37 -32
39 -2 2 -3 0 -3 -5z"/>
<path d="M5305 4420 c10 -11 20 -20 23 -20 3 0 -3 9 -13 20 -10 11 -20 20 -23
20 -3 0 3 -9 13 -20z"/>
<path d="M5514 4418 l-19 -23 23 19 c12 11 22 21 22 23 0 8 -8 2 -26 -19z"/>
<path d="M7028 4388 c5 -5 16 -8 23 -6 8 3 3 7 -10 11 -17 4 -21 3 -13 -5z"/>
<path d="M5938 4283 c7 -3 16 -2 19 1 4 3 -2 6 -13 5 -11 0 -14 -3 -6 -6z"/>
<path d="M4377 4182 l-47 -48 0 -345 0 -346 58 -54 c37 -35 89 -69 150 -99
l92 -44 0 -936 0 -936 48 -47 48 -47 200 0 200 0 47 48 47 48 0 937 0 937 93
46 c58 29 111 64 145 97 l52 51 0 346 0 346 -48 47 -48 47 -122 0 -122 0 -2
-271 -3 -271 -120 -48 -120 -48 -45 18 c-25 10 -79 31 -120 48 l-75 30 -3 271
-2 271 -128 0 -128 0 -47 -48z m648 -2486 c52 -34 60 -186 11 -234 -45 -46
-185 -48 -229 -3 -18 18 -23 35 -25 104 -3 72 -1 85 18 109 12 15 36 32 53 38
44 13 143 5 172 -14z"/>
<path d="M5757 4182 l-47 -48 0 -692 0 -692 -54 0 c-51 0 -55 -2 -100 -50
l-46 -49 0 -636 0 -636 46 -49 47 -50 207 0 207 0 47 50 46 49 0 636 0 636
-46 49 c-45 48 -49 50 -100 50 l-54 0 0 693 0 693 -48 47 c-26 26 -50 47 -53
47 -2 0 -26 -22 -52 -48z"/>
<path d="M6160 4077 c0 -16 34 -58 54 -68 l21 -10 -20 18 c-11 10 -28 29 -38
43 -9 13 -17 21 -17 17z"/>
<path d="M6414 4039 c-3 -6 -20 -19 -38 -30 -17 -10 -25 -19 -19 -19 13 0 83
59 71 60 -4 0 -10 -5 -14 -11z"/>
<path d="M6251 3989 c13 -8 97 -13 88 -5 -2 2 -26 6 -53 9 -30 3 -43 1 -35 -4z"/>
<path d="M4801 3843 c16 -26 75 -60 85 -50 4 4 0 7 -9 7 -9 0 -33 15 -53 32
-27 24 -33 27 -23 11z"/>
<path d="M5015 3824 c-18 -16 -22 -22 -9 -15 18 9 53 42 43 41 -2 -1 -17 -12
-34 -26z"/>
<path d="M4918 3783 c6 -2 18 -2 25 0 6 3 1 5 -13 5 -14 0 -19 -2 -12 -5z"/>
<path d="M7803 7981 c-79 -47 -143 -91 -143 -97 0 -18 130 -138 139 -128 14
15 171 296 171 305 0 18 -28 4 -167 -80z"/>
<path d="M9010 4545 c-14 -36 -24 -157 -16 -189 9 -34 61 -66 109 -66 58 0 91
38 106 121 6 36 11 79 11 96 0 30 -1 31 -67 42 -38 7 -83 14 -100 17 -29 5
-34 3 -43 -21z"/>
<path d="M8613 3778 c-13 -18 -63 -145 -63 -162 0 -10 36 -18 138 -31 75 -9
154 -21 175 -25 22 -5 40 -4 43 2 3 5 4 10 3 12 -6 4 -263 198 -275 208 -7 5
-15 3 -21 -4z"/>
<path d="M1873 3041 c-90 -31 -163 -59 -163 -62 0 -12 99 -159 107 -159 10 0
230 251 233 265 3 17 -13 13 -177 -44z"/>
</g>
</svg>
